<?xml version="1.0" encoding="utf-8"?>
<svg xmlns="http://www.w3.org/2000/svg" width="370" height="192" viewBox="0 0 370 192" fill="none">
<path fill-rule="evenodd" clip-rule="evenodd" d="M343.769 118.09H264.246V184.358H343.769V118.09Z" fill="url(#paint0_linear_2262_5709)"/>
<path fill-rule="evenodd" clip-rule="evenodd" d="M317.261 145.869C317.261 130.595 328.724 118.09 343.032 118.09C357.34 118.09 368.803 130.595 368.803 145.869C368.803 155.126 364.286 164.16 356.857 172.715C354.319 175.637 351.61 178.297 348.898 180.653C347.67 181.72 346.637 182.559 345.871 183.148L345.198 183.654C343.907 184.593 342.158 184.593 340.867 183.654C340.288 183.233 339.417 182.556 338.327 181.643L337.166 180.653C334.455 178.297 331.745 175.637 329.208 172.715C321.778 164.16 317.261 155.126 317.261 145.869ZM343.032 132.816C336.932 132.816 331.987 137.761 331.987 143.861C331.987 149.961 336.932 154.905 343.032 154.905C349.132 154.905 354.077 149.961 354.077 143.861C354.077 137.761 349.132 132.816 343.032 132.816ZM343.032 140.179C345.066 140.179 346.714 141.827 346.714 143.861C346.714 145.894 345.066 147.542 343.032 147.542C340.999 147.542 339.351 145.894 339.351 143.861C339.351 141.827 340.999 140.179 343.032 140.179Z" fill="#B6D1D0"/>
<ellipse cx="343.032" cy="143.37" rx="20.6169" ry="20.6169" fill="white"/>
<mask id="mask0_2262_5709" style="mask-type:luminance" maskUnits="userSpaceOnUse" x="322" y="122" width="42" height="42">
<ellipse cx="343.032" cy="143.37" rx="20.6169" ry="20.6169" fill="white"/>
</mask>
<g mask="url(#mask0_2262_5709)">
<g filter="url(#filter0_d_2262_5709)">
<path fill-rule="evenodd" clip-rule="evenodd" d="M315.565 124.467C315.565 123.393 316.436 122.522 317.511 122.522H369.273C370.347 122.522 371.218 123.393 371.218 124.467V162.316C371.218 163.391 370.347 164.262 369.273 164.262H317.511C316.436 164.262 315.565 163.391 315.565 162.316V124.467Z" fill="#D8D8D8"/>
<mask id="mask1_2262_5709" style="mask-type:luminance" maskUnits="userSpaceOnUse" x="315" y="122" width="57" height="43">
<path fill-rule="evenodd" clip-rule="evenodd" d="M315.565 124.467C315.565 123.393 316.436 122.522 317.511 122.522H369.273C370.347 122.522 371.218 123.393 371.218 124.467V162.316C371.218 163.391 370.347 164.262 369.273 164.262H317.511C316.436 164.262 315.565 163.391 315.565 162.316V124.467Z" fill="white"/>
</mask>
<g mask="url(#mask1_2262_5709)">
<path fill-rule="evenodd" clip-rule="evenodd" d="M315.565 122.522H371.207V125.726H315.565V122.522ZM315.565 128.931H371.207V132.136H315.565V128.931ZM371.207 135.34H315.565V138.545H371.207V135.34ZM315.565 141.749H371.207V144.954H315.565V141.749ZM371.207 148.158H315.565V151.363H371.207V148.158ZM315.565 154.567H371.207V157.772H315.565V154.567ZM371.207 160.976H315.565V164.181H371.207V160.976Z" fill="#BD3D44"/>
<path fill-rule="evenodd" clip-rule="evenodd" d="M371.207 125.726H315.565V128.931H371.207V125.726ZM371.207 132.136H315.565V135.34H371.207V132.136ZM315.565 138.545H371.207V141.749H315.565V138.545ZM371.207 144.954H315.565V148.158H371.207V144.954ZM315.565 151.363H371.207V154.567H315.565V151.363ZM371.207 157.772H315.565V160.976H371.207V157.772Z" fill="white"/>
<path d="M315.565 122.522H342V144.997H315.565V122.522Z" fill="#192F5D"/>
<path fill-rule="evenodd" clip-rule="evenodd" d="M323.501 123.484L323.79 124.372H324.724L323.968 124.921L324.257 125.81L323.501 125.261L322.746 125.81L323.034 124.921L322.279 124.372H323.213L323.501 123.484ZM318.214 123.484L318.503 124.372H319.437L318.681 124.921L318.97 125.81L318.214 125.261L317.459 125.81L317.747 124.921L316.992 124.372H317.926L318.214 123.484ZM329.077 124.372L328.789 123.484L328.5 124.372H327.566L328.322 124.921L328.033 125.81L328.789 125.261L329.544 125.81L329.256 124.921L330.011 124.372H329.077ZM334.075 123.484L334.364 124.372H335.298L334.542 124.921L334.831 125.81L334.075 125.261L333.32 125.81L333.608 124.921L332.853 124.372H333.787L334.075 123.484ZM339.651 124.372L339.363 123.484L339.074 124.372H338.14L338.896 124.921L338.607 125.81L339.363 125.261L340.118 125.81L339.83 124.921L340.585 124.372H339.651ZM320.858 125.732L321.147 126.62H322.081L321.325 127.169L321.614 128.057L320.858 127.508L320.102 128.057L320.391 127.169L319.635 126.62H320.569L320.858 125.732ZM326.433 126.62L326.145 125.732L325.856 126.62H324.922L325.678 127.169L325.389 128.057L326.145 127.508L326.9 128.057L326.612 127.169L327.367 126.62H326.433ZM331.432 125.732L331.721 126.62H332.655L331.899 127.169L332.188 128.057L331.432 127.508L330.676 128.057L330.965 127.169L330.209 126.62H331.143L331.432 125.732ZM337.008 126.62L336.719 125.732L336.431 126.62H335.497L336.252 127.169L335.963 128.057L336.719 127.508L337.475 128.057L337.186 127.169L337.942 126.62H337.008ZM318.214 127.979L318.503 128.867H319.437L318.681 129.416L318.97 130.305L318.214 129.756L317.459 130.305L317.747 129.416L316.992 128.867H317.926L318.214 127.979ZM323.79 128.867L323.501 127.979L323.213 128.867H322.279L323.034 129.416L322.746 130.305L323.501 129.756L324.257 130.305L323.968 129.416L324.724 128.867H323.79ZM328.789 127.979L329.077 128.867H330.011L329.256 129.416L329.544 130.305L328.789 129.756L328.033 130.305L328.322 129.416L327.566 128.867H328.5L328.789 127.979ZM334.364 128.867L334.075 127.979L333.787 128.867H332.853L333.608 129.416L333.32 130.305L334.075 129.756L334.831 130.305L334.542 129.416L335.298 128.867H334.364ZM339.363 127.979L339.651 128.867H340.585L339.83 129.416L340.118 130.305L339.363 129.756L338.607 130.305L338.896 129.416L338.14 128.867H339.074L339.363 127.979ZM321.147 131.115L320.858 130.227L320.569 131.115H319.635L320.391 131.664L320.102 132.552L320.858 132.003L321.614 132.552L321.325 131.664L322.081 131.115H321.147ZM326.145 130.227L326.433 131.115H327.367L326.612 131.664L326.9 132.552L326.145 132.003L325.389 132.552L325.678 131.664L324.922 131.115H325.856L326.145 130.227ZM331.721 131.115L331.432 130.227L331.143 131.115H330.209L330.965 131.664L330.676 132.552L331.432 132.003L332.188 132.552L331.899 131.664L332.655 131.115H331.721ZM336.719 130.227L337.008 131.115H337.942L337.186 131.664L337.475 132.552L336.719 132.003L335.963 132.552L336.252 131.664L335.497 131.115H336.431L336.719 130.227ZM318.503 133.362L318.214 132.474L317.926 133.362H316.992L317.747 133.911L317.459 134.8L318.214 134.251L318.97 134.8L318.681 133.911L319.437 133.362H318.503ZM323.501 132.474L323.79 133.362H324.724L323.968 133.911L324.257 134.8L323.501 134.251L322.746 134.8L323.034 133.911L322.279 133.362H323.213L323.501 132.474ZM329.077 133.362L328.789 132.474L328.5 133.362H327.566L328.322 133.911L328.033 134.8L328.789 134.251L329.544 134.8L329.256 133.911L330.011 133.362H329.077ZM334.075 132.474L334.364 133.362H335.298L334.542 133.911L334.831 134.8L334.075 134.251L333.32 134.8L333.608 133.911L332.853 133.362H333.787L334.075 132.474ZM339.651 133.362L339.363 132.474L339.074 133.362H338.14L338.896 133.911L338.607 134.8L339.363 134.251L340.118 134.8L339.83 133.911L340.585 133.362H339.651ZM320.858 134.722L321.147 135.61H322.081L321.325 136.159L321.614 137.047L320.858 136.498L320.102 137.047L320.391 136.159L319.635 135.61H320.569L320.858 134.722ZM326.433 135.61L326.145 134.722L325.856 135.61H324.922L325.678 136.159L325.389 137.047L326.145 136.498L326.9 137.047L326.612 136.159L327.367 135.61H326.433ZM331.432 134.722L331.721 135.61H332.655L331.899 136.159L332.188 137.047L331.432 136.498L330.676 137.047L330.965 136.159L330.209 135.61H331.143L331.432 134.722ZM337.008 135.61L336.719 134.722L336.431 135.61H335.497L336.252 136.159L335.963 137.047L336.719 136.498L337.475 137.047L337.186 136.159L337.942 135.61H337.008Z" fill="white"/>
<path fill-rule="evenodd" clip-rule="evenodd" d="M318.214 136.969L318.503 137.857H319.437L318.681 138.407L318.97 139.295L318.214 138.746L317.459 139.295L317.747 138.407L316.992 137.857H317.926L318.214 136.969ZM323.501 136.969L323.79 137.857H324.724L323.968 138.407L324.257 139.295L323.501 138.746L322.746 139.295L323.034 138.407L322.279 137.857H323.213L323.501 136.969ZM329.077 137.857L328.789 136.969L328.5 137.857H327.566L328.321 138.407L328.033 139.295L328.789 138.746L329.544 139.295L329.256 138.407L330.011 137.857H329.077ZM334.075 136.969L334.364 137.857H335.298L334.542 138.407L334.831 139.295L334.075 138.746L333.32 139.295L333.608 138.407L332.853 137.857H333.787L334.075 136.969ZM339.651 137.857L339.363 136.969L339.074 137.857H338.14L338.896 138.407L338.607 139.295L339.363 138.746L340.118 139.295L339.83 138.407L340.585 137.857H339.651ZM320.858 139.217L321.146 140.105H322.081L321.325 140.654L321.614 141.542L320.858 140.993L320.102 141.542L320.391 140.654L319.635 140.105H320.569L320.858 139.217ZM326.433 140.105L326.145 139.217L325.856 140.105H324.922L325.678 140.654L325.389 141.542L326.145 140.993L326.9 141.542L326.612 140.654L327.367 140.105H326.433ZM331.432 139.217L331.721 140.105H332.655L331.899 140.654L332.188 141.542L331.432 140.993L330.676 141.542L330.965 140.654L330.209 140.105H331.143L331.432 139.217ZM337.008 140.105L336.719 139.217L336.431 140.105H335.497L336.252 140.654L335.963 141.542L336.719 140.993L337.475 141.542L337.186 140.654L337.942 140.105H337.008Z" fill="white"/>
<path fill-rule="evenodd" clip-rule="evenodd" d="M323.501 141.464L323.79 142.353H324.724L323.968 142.902L324.257 143.79L323.501 143.241L322.746 143.79L323.034 142.902L322.279 142.353H323.213L323.501 141.464ZM318.214 141.464L318.503 142.353H319.437L318.681 142.902L318.97 143.79L318.214 143.241L317.459 143.79L317.747 142.902L316.992 142.353H317.926L318.214 141.464ZM329.077 142.353L328.789 141.464L328.5 142.353H327.566L328.321 142.902L328.033 143.79L328.789 143.241L329.544 143.79L329.256 142.902L330.011 142.353H329.077ZM334.075 141.464L334.364 142.353H335.298L334.542 142.902L334.831 143.79L334.075 143.241L333.32 143.79L333.608 142.902L332.853 142.353H333.787L334.075 141.464ZM339.651 142.353L339.363 141.464L339.074 142.353H338.14L338.896 142.902L338.607 143.79L339.363 143.241L340.118 143.79L339.83 142.902L340.585 142.353H339.651Z" fill="white"/>
</g>
</g>
</g>
<path fill-rule="evenodd" clip-rule="evenodd" d="M25.679 87.1642H142.754V153.433H25.679V87.1642Z" fill="url(#paint1_linear_2262_5709)"/>
<path fill-rule="evenodd" clip-rule="evenodd" d="M1.19661 114.943C1.19661 99.6694 12.6598 87.1642 26.9678 87.1642C41.2757 87.1642 52.7389 99.6694 52.7389 114.943C52.7389 124.2 48.2219 133.234 40.7923 141.79C38.2548 144.712 35.5451 147.372 32.8336 149.728C31.6051 150.795 30.5721 151.633 29.8067 152.223L29.1332 152.729C27.8422 153.668 26.0933 153.668 24.8023 152.729C24.2233 152.308 23.3527 151.63 22.2626 150.718L21.1019 149.728C18.3904 147.372 15.6807 144.712 13.1433 141.79C5.7136 133.234 1.19661 124.2 1.19661 114.943ZM26.9678 101.891C20.8679 101.891 15.923 106.835 15.923 112.935C15.923 119.035 20.8679 123.98 26.9678 123.98C33.0676 123.98 38.0125 119.035 38.0125 112.935C38.0125 106.835 33.0676 101.891 26.9678 101.891ZM26.9678 109.254C29.001 109.254 30.6493 110.902 30.6493 112.935C30.6493 114.969 29.001 116.617 26.9678 116.617C24.9345 116.617 23.2862 114.969 23.2862 112.935C23.2862 110.902 24.9345 109.254 26.9678 109.254Z" fill="#001D2F"/>
<circle cx="26.9675" cy="112.444" r="20.6169" fill="#001D2F"/>
<mask id="mask2_2262_5709" style="mask-type:luminance" maskUnits="userSpaceOnUse" x="6" y="91" width="42" height="43">
<circle cx="26.9675" cy="112.444" r="20.6169" fill="white"/>
</mask>
<g mask="url(#mask2_2262_5709)">
<g clip-path="url(#clip0_2262_5709)">
<path d="M-0.333328 119.024H56.3333V133.162H-0.333328V119.024Z" fill="#FFCE00"/>
<path d="M-0.333328 90.75H56.3333V104.887H-0.333328V90.75Z" fill="black"/>
<path d="M-0.333328 104.887H56.3333V119.024H-0.333328V104.887Z" fill="#DD0000"/>
</g>
<path fill-rule="evenodd" clip-rule="evenodd" d="M-1.04166 97.8333C-1.04166 93.5301 2.44679 90.0417 6.75001 90.0417H49.25C53.5532 90.0417 57.0417 93.5301 57.0417 97.8333V126.167C57.0417 130.47 53.5532 133.958 49.25 133.958H6.75001C2.44679 133.958 -1.04166 130.47 -1.04166 126.167V97.8333ZM6.75001 91.4583C3.22919 91.4583 0.37501 94.3125 0.37501 97.8333V126.167C0.37501 129.687 3.22919 132.542 6.75001 132.542H49.25C52.7708 132.542 55.625 129.687 55.625 126.167V97.8333C55.625 94.3125 52.7708 91.4583 49.25 91.4583H6.75001Z" fill="#CCD2D5"/>
</g>
<path fill-rule="evenodd" clip-rule="evenodd" d="M294.435 18.6866H90.1071V84.9552H294.435V18.6866Z" fill="url(#paint2_linear_2262_5709)"/>
<path fill-rule="evenodd" clip-rule="evenodd" d="M268.388 46.4658C268.388 31.1918 279.851 18.6866 294.159 18.6866C308.467 18.6866 319.93 31.1918 319.93 46.4658C319.93 55.7229 315.413 64.7568 307.984 73.3122C305.446 76.2341 302.737 78.8945 300.025 81.25C298.796 82.3172 297.763 83.1559 296.998 83.7454L296.325 84.2511C295.034 85.1899 293.285 85.1899 291.994 84.2511C291.415 83.83 290.544 83.1528 289.454 82.2402L288.293 81.25C285.582 78.8945 282.872 76.2341 280.335 73.3122C272.905 64.7568 268.388 55.7229 268.388 46.4658ZM294.159 33.4129C288.059 33.4129 283.114 38.3578 283.114 44.4577C283.114 50.5576 288.059 55.5025 294.159 55.5025C300.259 55.5025 305.204 50.5576 305.204 44.4577C305.204 38.3578 300.259 33.4129 294.159 33.4129ZM294.159 40.7761C296.192 40.7761 297.841 42.4244 297.841 44.4577C297.841 46.491 296.192 48.1393 294.159 48.1393C292.126 48.1393 290.478 46.491 290.478 44.4577C290.478 42.4244 292.126 40.7761 294.159 40.7761Z" fill="#F0EACF"/>
<ellipse cx="294.16" cy="43.9669" rx="20.6169" ry="20.6169" fill="#001D2F"/>
<mask id="mask3_2262_5709" style="mask-type:luminance" maskUnits="userSpaceOnUse" x="273" y="23" width="42" height="42">
<ellipse cx="294.16" cy="43.9669" rx="20.6169" ry="20.6169" fill="white"/>
</mask>
<g mask="url(#mask3_2262_5709)">
<g filter="url(#filter1_d_2262_5709)">
<path fill-rule="evenodd" clip-rule="evenodd" d="M264.792 29.2733C264.792 25.2745 268.034 22.0328 272.033 22.0328H315.476C319.474 22.0328 322.716 25.2745 322.716 29.2733V58.2351C322.716 62.2339 319.474 65.4756 315.476 65.4756H272.033C268.034 65.4756 264.792 62.2339 264.792 58.2351V29.2733Z" fill="#D8D8D8"/>
<mask id="mask4_2262_5709" style="mask-type:luminance" maskUnits="userSpaceOnUse" x="264" y="22" width="59" height="44">
<path fill-rule="evenodd" clip-rule="evenodd" d="M264.792 29.2733C264.792 25.2745 268.034 22.0328 272.033 22.0328H315.476C319.474 22.0328 322.716 25.2745 322.716 29.2733V58.2351C322.716 62.2339 319.474 65.4756 315.476 65.4756H272.033C268.034 65.4756 264.792 62.2339 264.792 58.2351V29.2733Z" fill="white"/>
</mask>
<g mask="url(#mask4_2262_5709)">
<path d="M264.792 22.0328H322.716V65.4756H264.792V22.0328Z" fill="#000066"/>
<mask id="mask5_2262_5709" style="mask-type:luminance" maskUnits="userSpaceOnUse" x="264" y="22" width="59" height="44">
<path d="M264.792 22.0328H322.716V65.4756H264.792V22.0328Z" fill="white"/>
</mask>
<g mask="url(#mask5_2262_5709)">
<path fill-rule="evenodd" clip-rule="evenodd" d="M250.311 26.8805V22.0328H260.006L293.67 38.8648L283.975 43.7124L250.311 26.8805ZM293.67 48.5599L260.006 65.3918H250.311V60.5442L283.975 43.7124L293.67 48.5599ZM293.67 48.5599L303.365 43.7124L337.029 60.5445V65.3919H327.334L293.67 48.5599ZM303.365 43.7124L293.67 38.8648L327.334 22.0328H337.029V26.8804L303.365 43.7124Z" fill="white"/>
<path fill-rule="evenodd" clip-rule="evenodd" d="M286.444 36.4858V22.0328H300.897V36.4858H286.444ZM286.444 50.9388H250.311V36.4858H286.444V50.9388ZM286.444 50.9388H300.897V65.3918H286.444V50.9388ZM300.897 50.9388V36.4858H337.029V50.9388H300.897Z" fill="white"/>
<path fill-rule="evenodd" clip-rule="evenodd" d="M289.335 39.3764V22.0328H298.006V39.3764H337.029V48.0482H298.006V65.3918H289.335V48.0482H250.311V39.3764H289.335ZM250.311 65.3918L279.217 50.9388H285.681L256.775 65.3918H250.311ZM279.217 36.4858L250.311 22.0328V25.2647L272.754 36.4858H279.217ZM301.66 36.4858L330.566 22.0328H337.029L308.123 36.4858H301.66ZM308.123 50.9388L337.029 65.3918V62.1601L314.587 50.9388H308.123Z" fill="#CC0000"/>
</g>
</g>
<path fill-rule="evenodd" clip-rule="evenodd" d="M264.068 29.2733C264.068 24.8746 267.634 21.3088 272.033 21.3088H315.476C319.874 21.3088 323.44 24.8746 323.44 29.2733V58.2351C323.44 62.6338 319.874 66.1996 315.476 66.1996H272.033C267.634 66.1996 264.068 62.6338 264.068 58.2351V29.2733ZM272.033 22.7569C268.434 22.7569 265.516 25.6744 265.516 29.2733V58.2351C265.516 61.834 268.434 64.7515 272.033 64.7515H315.476C319.075 64.7515 321.992 61.834 321.992 58.2351V29.2733C321.992 25.6744 319.075 22.7569 315.476 22.7569H272.033Z" fill="#CCD2D5"/>
</g>
</g>
<mask id="mask6_2262_5709" style="mask-type:luminance" maskUnits="userSpaceOnUse" x="63" y="37" width="236" height="148">
<rect x="63.9379" y="37.1622" width="234.864" height="147.196" fill="white"/>
</mask>
<g mask="url(#mask6_2262_5709)">
<ellipse cx="181.936" cy="169.843" rx="111.888" ry="111.926" transform="rotate(-90 181.936 169.843)" fill="url(#paint3_linear_2262_5709)"/>
<mask id="mask7_2262_5709" style="mask-type:luminance" maskUnits="userSpaceOnUse" x="69" y="58" width="225" height="224">
<ellipse cx="181.721" cy="169.897" rx="112.174" ry="111.761" fill="white"/>
</mask>
<g mask="url(#mask7_2262_5709)">
<path fill-rule="evenodd" clip-rule="evenodd" d="M227.832 42.7221C228.353 42.7221 228.871 42.6308 229.361 42.4525L250.493 34.7618C250.983 34.5835 251.501 34.4922 252.023 34.4922H270.981C271.517 34.4922 272.05 34.5888 272.552 34.7773L291.433 41.8633C292.809 42.3799 293.721 43.696 293.721 45.1663C293.721 45.8106 293.545 46.4426 293.211 46.9937L280.783 67.5167C280.307 68.3031 279.454 68.7834 278.535 68.7834C277.083 68.7834 275.907 69.96 275.907 71.4115V78.223C275.907 79.9898 274.866 81.5909 273.252 82.3088L258.269 88.9723C257.697 89.2267 257.078 89.3581 256.452 89.3581H254.317C252.461 89.3581 250.798 90.5046 250.138 92.2391L246.849 100.88C246.188 102.614 244.525 103.76 242.669 103.76H240.608C239.113 103.76 237.716 103.013 236.887 101.768L229.37 90.4842C228.881 89.7499 228.62 88.8874 228.62 88.0051V69.1402C228.62 66.6705 226.618 64.6685 224.148 64.6685H210.478C208.008 64.6685 206.006 62.6664 206.006 60.1968V54.5821C206.006 53.1619 206.681 51.8261 207.824 50.9832L217.843 43.5948C218.612 43.0279 219.542 42.7221 220.497 42.7221H227.832ZM405.721 70.1194C406.421 69.6941 407.224 69.4692 408.043 69.4692H430.7C432.255 69.4692 433.516 68.2082 433.516 66.6527C433.516 65.4627 434.264 64.4011 435.385 64.0006L443.11 61.2393L454.037 57.3797C454.515 57.2107 455.019 57.1244 455.526 57.1244H460.129C461.424 57.1244 462.574 57.9532 462.983 59.1819C463.392 60.4105 464.542 61.2393 465.837 61.2393H472.574C474.846 61.2393 476.689 63.0817 476.689 65.3543C476.689 67.6269 478.531 69.4692 480.803 69.4692H497.144C498.429 69.4692 499.566 70.3017 499.954 71.5267C500.342 72.7517 501.479 73.5842 502.764 73.5842H503.777C504.126 73.5842 504.473 73.5421 504.812 73.4589L511.594 71.7912C511.943 71.7053 512.302 71.6618 512.662 71.6618H523.506C524.218 71.6618 524.92 71.8321 525.554 72.1585L535.343 77.2025C535.977 77.5288 536.679 77.6991 537.391 77.6991H567.961C568.772 77.6991 569.568 77.9197 570.263 78.3372L582.299 85.5647C584.361 86.8032 584.734 89.639 583.062 91.3685C582.515 91.9344 581.803 92.3132 581.028 92.4509L575.879 93.3654C575.225 93.4816 574.605 93.7423 574.064 94.1284L560.772 103.614C560.014 104.155 559.106 104.446 558.174 104.446H551.886C550.301 104.446 548.834 105.286 548.031 106.652L544.103 113.336C543.932 113.628 543.728 113.899 543.495 114.145L540.073 117.758C538.412 119.512 535.484 118.892 534.676 116.616C534.403 115.847 534.431 115.003 534.754 114.254L539.414 103.437C539.987 102.107 539.282 100.573 537.899 100.142C536.939 99.8425 535.894 100.162 535.266 100.948L534.699 101.658C533.983 102.553 532.899 103.075 531.753 103.075H519.27C517.911 103.075 516.626 103.693 515.777 104.754L514.237 106.681C512.772 108.513 512.972 111.166 514.695 112.758L519.109 116.835C520.025 117.681 520.546 118.872 520.546 120.12V130.151C520.546 132.62 518.544 134.623 516.074 134.623H511.54C510.863 134.623 510.195 134.776 509.586 135.072L504.056 137.759C502.789 138.375 501.887 139.552 501.62 140.935L500.664 145.893C500.53 146.588 500.64 147.308 500.976 147.93L501.329 148.585C502.271 150.333 501.005 152.454 499.019 152.454C498.323 152.454 497.655 152.177 497.163 151.685L490.56 145.076C490.015 144.531 489.275 144.224 488.504 144.224C486.899 144.224 485.597 145.526 485.597 147.131V164.641C485.597 166.075 484.909 167.423 483.746 168.264L471.66 177.006C470.944 177.524 470.024 177.671 469.182 177.402C466.764 176.629 464.658 179.232 465.919 181.435L467.273 183.801C467.605 184.382 467.78 185.04 467.78 185.709V187.416C467.78 188.73 467.201 189.978 466.198 190.828L462.096 194.302L459.538 194.009C457.514 193.777 456.26 196.153 457.593 197.694L461.567 202.286L461.925 204.803C462.017 205.449 461.538 206.037 460.887 206.076L458.02 206.252C457.618 206.276 457.235 206.083 457.015 205.746L452.059 198.146C451.586 197.419 451.333 196.571 451.333 195.703V188.379C451.333 187.754 451.202 187.136 450.949 186.564L446.61 176.795C446.149 175.756 445.118 175.086 443.982 175.086C443.413 175.086 442.858 175.254 442.385 175.57L434.315 180.954C433.362 181.59 432.69 182.567 432.436 183.684L429.723 195.631C429.537 196.451 428.808 197.033 427.967 197.033C427.566 197.033 427.177 196.899 426.861 196.653L416.739 188.774C415.651 187.926 415.014 186.624 415.014 185.245V178.496C415.014 176.613 413.487 175.086 411.604 175.086C409.996 175.086 408.606 173.963 408.269 172.39L407.65 169.499C407.164 167.229 405.021 165.708 402.717 165.999L388.123 167.843C386.876 168 385.62 167.626 384.663 166.81L382.624 165.072C381.866 164.427 380.914 164.052 379.919 164.009L378.636 163.952C377.252 163.892 375.971 164.684 375.407 165.949C374.818 167.27 375.137 168.82 376.2 169.801L376.68 170.243C378.016 171.477 379.986 171.731 381.593 170.878L381.875 170.728C382.977 170.143 384.272 170.045 385.449 170.456L387.732 171.255C389.526 171.882 390.728 173.575 390.728 175.476V175.575C390.728 176.993 390.055 178.327 388.915 179.17L382.639 183.811C381.87 184.381 380.938 184.688 379.98 184.688H371.38C369.896 184.688 368.508 183.951 367.676 182.722L358.577 169.271C358.107 168.576 357.322 168.16 356.483 168.16C356.22 168.16 355.984 168.323 355.891 168.569L355.424 169.811L348.449 160.552L351.44 161.334C351.855 161.443 352.293 161.43 352.701 161.296L355.34 160.433C356.976 159.897 358.083 158.371 358.083 156.649V155.762C358.083 154.363 357.087 153.161 355.711 152.901L355.478 152.857C354.238 152.623 353.34 151.54 353.34 150.278C353.34 148.828 352.164 147.653 350.715 147.653H340.488C338.124 147.653 336.208 145.737 336.208 143.373C336.208 142.168 335.7 141.018 334.808 140.207L334.145 139.604C333.107 138.66 331.466 138.894 330.733 140.091L329.75 141.698L329.875 143.561C329.944 144.595 328.692 145.158 327.964 144.421L325.629 142.056L324.024 138.737C324.024 138.737 321.428 137.245 320.525 137.795C319.622 138.346 320.801 141.274 321.828 142.508C322.324 143.104 322.975 143.671 323.515 144.099C323.981 144.468 323.961 145.211 323.453 145.521C323.271 145.633 323.139 145.812 323.088 146.02L322.694 147.623C322.551 148.205 321.971 148.569 321.384 148.451C320.862 148.346 320.483 147.887 320.483 147.355V145.26C320.483 144.998 320.391 144.745 320.223 144.544L317.751 141.582C317.694 141.515 317.63 141.454 317.56 141.402L315.793 140.087C315.214 139.656 314.512 139.423 313.791 139.423H312.737C311.146 139.423 309.675 140.269 308.873 141.643L306.744 145.296C305.901 146.743 304.319 147.598 302.646 147.51L296.116 147.166C293.941 147.051 292.164 145.386 291.91 143.222L291.567 140.302C291.254 137.644 293.331 135.308 296.008 135.308H302.97C304.296 135.308 305.37 134.234 305.37 132.908C305.37 131.582 304.296 130.508 302.97 130.508H298.519C297.383 130.508 296.462 129.586 296.462 128.45C296.462 127.314 297.383 126.393 298.519 126.393H302.897C304.263 126.393 305.37 125.285 305.37 123.919C305.37 122.925 305.967 122.027 306.883 121.64L315.655 117.944C317.313 117.245 318.391 115.622 318.391 113.823V109.931C318.391 108.796 317.47 107.875 316.335 107.875C315.199 107.875 314.279 106.955 314.279 105.82V97.3817C314.279 96.1964 314.75 95.0595 315.587 94.221L330.786 79.0101C331.625 78.1707 332.763 77.6991 333.949 77.6991H342.373C343.51 77.6991 344.431 76.778 344.431 75.6416C344.431 74.5053 345.352 73.5842 346.488 73.5842H348.885C351.345 73.5842 353.34 75.5784 353.34 78.0384V78.3221C353.34 80.7918 355.342 82.7939 357.811 82.7939H383.61C384.429 82.7939 385.232 82.569 385.932 82.1437L405.721 70.1194ZM487.126 176.071C485.764 175.855 484.516 176.871 484.452 178.249L484.076 186.336C484.03 187.325 484.735 188.191 485.713 188.346C486.669 188.497 487.368 189.328 487.353 190.296L487.265 196.08C487.245 197.358 488.168 198.456 489.431 198.656C490.832 198.878 492.148 197.922 492.37 196.521L493.641 188.496C493.784 187.595 493.169 186.749 492.268 186.607C491.616 186.503 491.087 186.021 490.925 185.38L489.007 177.789C488.781 176.892 488.04 176.216 487.126 176.071ZM471.559 209.788C471.176 210.309 470.86 210.817 470.611 211.315C470.464 211.609 470.382 211.943 470.365 212.314C470.32 213.325 471.99 216.377 472.792 217.78C473.059 218.247 473.49 218.591 474.002 218.754C475.87 219.351 480.486 220.785 481.677 220.785C484.016 220.785 484.501 216.152 484.843 212.875L484.843 212.873L484.844 212.871C484.924 212.098 484.997 211.401 485.085 210.858C485.233 209.942 486.351 207.714 486.954 206.558C487.179 206.127 487.108 205.598 486.771 205.247L483.385 201.712C482.967 201.277 482.284 201.247 481.834 201.65C479.895 203.388 475.005 207.767 473.598 209.004C473.076 209.464 472.636 209.488 472.278 209.508C471.983 209.525 471.744 209.538 471.559 209.788ZM492.556 229.266C491.597 229.266 490.663 229.575 489.893 230.146L474.386 241.642C473.248 242.485 472.577 243.818 472.577 245.234V253.122C472.577 254.107 472.903 255.065 473.503 255.847L478.087 261.811C478.934 262.912 480.244 263.557 481.633 263.557H486.928C488.256 263.557 489.515 262.967 490.364 261.947L491.109 261.053C491.959 260.033 493.218 259.443 494.545 259.443H501.39C502.676 259.443 503.901 259.997 504.75 260.964L515.987 273.764C516.836 274.731 518.06 275.285 519.347 275.285H519.575C520.345 275.285 521.101 275.087 521.771 274.709L527.571 271.439C528.475 270.93 529.173 270.123 529.546 269.156L533.266 259.535C533.464 259.02 533.566 258.474 533.566 257.923V248.618C533.566 247.632 533.241 246.674 532.64 245.893L520.496 230.093C520.096 229.572 519.476 229.266 518.818 229.266C517.826 229.266 516.967 229.955 516.752 230.924L516.526 231.941C516.103 233.845 514.174 235.009 512.293 234.495L509.994 233.868C508.88 233.564 507.992 232.723 507.627 231.628C507.158 230.218 505.838 229.266 504.351 229.266H492.556ZM466.406 223.243C466.947 223.844 467.927 223.69 468.257 222.952L469.668 219.8C469.785 219.538 469.797 219.242 469.702 218.972L469.1 217.259C469.015 217.018 468.85 216.812 468.632 216.678L455.281 208.451C455.146 208.368 454.995 208.315 454.838 208.294L454.431 208.242C453.333 208.099 452.718 209.468 453.554 210.194L458.618 214.593L466.406 223.243ZM469.474 223.592C469.378 223.755 469.293 223.9 469.192 223.98C468.287 224.694 474 225.732 479.247 226.685L479.247 226.685C481.77 227.144 484.185 227.582 485.705 227.956C486.993 228.273 488.051 228.437 488.907 228.507C489.956 228.594 489.964 227.811 488.939 227.571C486.934 227.103 484.564 226.467 483.839 225.938C478.276 223.714 473.023 222.476 470.449 222.772C469.922 222.833 469.675 223.251 469.474 223.592ZM493.067 214.105C497.22 218.287 499.689 218.382 501.746 218.462C503.621 218.534 505.153 218.593 507.307 221.723C510.352 226.148 512.07 224.323 513.61 222.688C514.354 221.897 515.057 221.151 515.848 221.177C516.899 221.211 517.695 221.903 518.468 222.576C519.479 223.455 520.451 224.3 521.907 223.6C524.477 222.364 523.184 219.857 521.225 219.736C520.403 219.685 519.695 219.051 518.936 218.371C517.888 217.432 516.742 216.405 515.059 216.701C513.991 216.89 512.796 216.501 511.287 216.01C508.693 215.165 505.167 214.018 499.75 214.973C498.394 214.611 497.569 214.485 496.971 214.394C495.871 214.226 495.543 214.176 494.094 212.984C492.711 212.421 492.624 213.823 493.067 214.105ZM524.712 134.17C524.463 134.695 524.113 135.167 523.684 135.558L519.489 139.383C519.211 139.637 518.966 139.924 518.76 140.239L514.283 147.083C514.185 147.233 514.076 147.375 513.957 147.508L511.683 150.055C510.5 151.379 511.44 153.479 513.216 153.479C513.801 153.479 514.359 153.229 514.749 152.793L519.061 147.962C519.447 147.53 519.746 147.027 519.94 146.481L520.293 145.487C520.754 144.188 521.788 143.175 523.096 142.74L529.328 140.668C530.983 140.118 532.168 138.655 532.361 136.921L533.031 130.92C533.239 129.055 531.779 127.423 529.902 127.423C528.686 127.423 527.579 128.123 527.058 129.222L524.712 134.17ZM297.906 101.665C297.136 101.933 296.903 102.909 297.47 103.497L297.851 103.892C298.07 104.119 298.183 104.429 298.161 104.744L297.903 108.498C297.892 108.659 297.916 108.82 297.973 108.971L299.345 112.592C299.354 112.616 299.362 112.64 299.369 112.665C299.382 112.707 299.392 112.75 299.4 112.794L299.976 116.059C300.038 116.411 299.928 116.771 299.68 117.028L298.29 118.473C297.951 118.824 297.88 119.354 298.113 119.783L299.348 122.05C299.666 122.633 300.418 122.812 300.965 122.436L308.029 117.566C308.407 117.306 308.587 116.842 308.484 116.395L308.242 115.345C308.217 115.239 308.178 115.137 308.124 115.043L303.473 106.869C303.336 106.628 303.293 106.345 303.353 106.075L303.818 103.972C303.917 103.527 303.735 103.066 303.359 102.808L300.885 101.11C300.592 100.909 300.22 100.859 299.884 100.976L297.906 101.665ZM291.252 114.309C291.243 114.183 291.255 114.057 291.288 113.935L291.372 113.625C291.445 113.355 291.616 113.122 291.852 112.972L292.894 112.312C292.969 112.264 293.038 112.208 293.099 112.144L295.234 109.936C295.681 109.473 296.426 109.483 296.861 109.957C297.146 110.266 297.233 110.709 297.087 111.102L296.932 111.522C296.886 111.646 296.862 111.777 296.862 111.91V115.901C296.862 116.389 296.545 116.822 296.078 116.967L293.07 117.908C292.797 117.993 292.502 117.971 292.245 117.845L292.062 117.755C291.705 117.581 291.467 117.229 291.438 116.833L291.252 114.309ZM198.106 188.117C196.643 188.117 195.3 188.928 194.619 190.223C194.256 190.912 193.521 191.323 192.743 191.271L191.351 191.177C191.041 191.156 190.739 191.071 190.465 190.928L189.251 190.293L186.626 188.644C185.425 187.889 184.653 186.609 184.546 185.195L184.445 183.856C184.276 181.617 182.41 179.887 180.164 179.887H178.386C176.454 179.887 175.049 178.051 175.555 176.186L175.701 175.65C175.799 175.287 175.758 174.901 175.586 174.567C175.094 173.612 173.789 173.466 173.098 174.288L172.93 174.488C172.612 174.867 172.141 175.086 171.646 175.086H167.991C165.521 175.086 163.519 173.084 163.519 170.614V165.156C163.519 162.686 165.521 160.684 167.991 160.684H185.746C187.269 160.684 188.686 159.91 189.509 158.629L193.647 152.187C194.11 151.466 194.356 150.627 194.356 149.77V146.877C194.356 146.04 194.591 145.219 195.035 144.509L199.896 136.726C200.713 135.417 202.146 134.622 203.688 134.622H214.085C215.3 134.622 216.285 133.637 216.285 132.422C216.285 131.659 215.889 130.949 215.239 130.549L208.632 126.48C207.852 126 207.376 125.149 207.376 124.232C207.376 122.774 208.558 121.592 210.017 121.592H218.531C219.3 121.592 220.05 121.825 220.684 122.26L222.489 123.499C223.477 124.177 224.836 123.808 225.346 122.724C225.671 122.035 225.562 121.219 225.068 120.639L211.457 104.648C210.607 103.65 209.362 103.075 208.051 103.075H207.859C205.934 103.075 204.225 101.842 203.617 100.016L201.542 93.7884C200.934 91.9619 199.225 90.7297 197.3 90.7297H196.216C193.974 90.7297 192.079 92.3891 191.783 94.6109L188.427 119.8C188.291 120.826 187.416 121.592 186.381 121.592C185.788 121.592 185.223 121.336 184.831 120.891L171.485 105.713C170.768 104.896 170.372 103.847 170.372 102.76V100.811C170.372 99.6255 170.842 98.4886 171.68 97.6501L186.879 82.4392C187.718 81.5998 188.855 81.1282 190.042 81.1282H197.343C198.894 81.1282 200.334 81.932 201.149 83.2521L204.199 88.1969C204.487 88.6644 204.687 89.181 204.788 89.7209L205.566 93.8711C205.841 95.3368 206.828 96.5691 208.199 97.1569L209.365 97.6572C212.316 98.9229 215.6 96.7585 215.6 93.5476V89.6361C215.6 88.6768 215.291 87.7429 214.72 86.9723L204.606 73.3346C203.762 72.1973 202.43 71.5267 201.014 71.5267H192.66C190.191 71.5267 188.189 69.5246 188.189 67.0549V59.5386C188.189 57.0689 190.191 55.0669 192.66 55.0669H194.978C195.911 55.0669 196.82 54.7753 197.579 54.233L214.652 42.0277C215.247 41.6026 215.6 40.9166 215.6 40.1856C215.6 38.9351 214.586 37.9213 213.335 37.9213H185.318C183.734 37.9213 182.302 38.8655 181.679 40.3217C181.055 41.7778 179.624 42.722 178.04 42.722H167.803C166.803 42.722 165.832 43.057 165.045 43.6733L151.713 54.1156C150.926 54.732 149.956 55.0669 148.956 55.0669H132.228C130.792 55.0669 129.443 55.757 128.602 56.9218L113.462 77.9016C112.622 79.0665 111.273 79.7565 109.836 79.7565H102.395C102.029 79.7565 101.665 79.7116 101.31 79.6228L80.4502 74.4037C80.0952 74.3149 79.7307 74.27 79.3648 74.27H72.9872C72.1414 74.27 71.313 74.5098 70.598 74.9618L60.7548 81.1835C59.4583 82.003 58.6723 83.4297 58.6723 84.9635V95.423C58.6723 95.9478 58.7647 96.4685 58.9452 96.9613L65.1356 113.858C65.7811 115.62 67.4579 116.791 69.3344 116.791H74.3938C75.7216 116.791 76.9807 116.201 77.8302 115.181L85.4276 106.057C86.2772 105.036 87.5362 104.446 88.864 104.446H99.5605C100.995 104.446 102.342 105.134 103.183 106.297L115.699 123.594C116.053 124.083 116.502 124.495 117.02 124.806L120.918 127.147C122.264 127.956 123.088 129.411 123.088 130.981V146.849C123.088 147.816 123.401 148.757 123.981 149.531L131.036 158.945C131.219 159.189 131.426 159.414 131.655 159.616L141.693 168.48C142.51 169.201 143.562 169.6 144.653 169.6H146.712C149.182 169.6 151.184 171.602 151.184 174.071V177.776C151.184 179.487 152.16 181.048 153.698 181.797L175.743 192.53C176.269 192.786 176.839 192.936 177.423 192.973L189.397 193.717L190.487 193.893C190.742 193.934 190.974 194.062 191.144 194.256C191.425 194.577 191.497 195.031 191.329 195.422L189.236 200.303C188.997 200.86 188.874 201.46 188.874 202.066V216.327C188.874 217.58 189.399 218.775 190.322 219.622L203.87 232.052C204.794 232.899 205.319 234.094 205.319 235.347V242.218C205.319 242.724 205.233 243.227 205.065 243.705L197.352 265.579C197.183 266.057 197.097 266.56 197.097 267.066V289.352C197.097 290.41 197.472 291.434 198.155 292.241L201.293 295.949C202.112 296.916 203.302 297.491 204.569 297.53L206.552 297.591C210.124 297.701 212.376 293.784 210.483 290.753L209.541 289.244C208.635 287.795 208.635 285.956 209.541 284.507L214.625 276.365C214.817 276.058 215.046 275.775 215.306 275.523L257.413 234.699C258.281 233.857 258.772 232.698 258.772 231.488V214.574C258.772 213.046 257.991 211.624 256.702 210.803L222.181 188.817C221.463 188.36 220.63 188.117 219.779 188.117H198.106ZM177.769 173.876C176.855 172.276 178.011 170.285 179.853 170.285H203.275C204.88 170.285 206.362 171.146 207.158 172.54L207.488 173.119C208.183 174.335 209.476 175.086 210.877 175.086H212.722C213.858 175.086 214.779 176.007 214.779 177.144C214.779 178.28 213.858 179.201 212.722 179.201H195.93C194.434 179.201 193.038 178.453 192.208 177.208L192.122 177.079C191.293 175.834 189.896 175.086 188.4 175.086H179.853C178.992 175.086 178.196 174.624 177.769 173.876ZM553.005 258.908C552.864 258.908 552.717 258.905 552.566 258.902C551.275 258.872 549.753 258.836 550.349 260.893C550.504 261.427 553.574 265.581 554.068 265.014C554.988 263.956 553.181 259.312 553.005 258.908ZM550.901 268.92C550.417 268.757 550.006 268.107 549.583 267.439C548.947 266.432 548.282 265.382 547.3 265.88C546.444 266.314 535.95 282.913 541.598 280.624C543.136 280.001 543.847 278.567 544.57 277.108C545.192 275.853 545.824 274.578 547 273.784C548.582 272.715 549.525 271.171 550.562 269.474L550.565 269.468C550.676 269.287 550.788 269.104 550.901 268.92ZM60.6177 177.006C60.1364 177.326 59.9784 177.961 60.2536 178.469L60.5171 178.956C60.7721 179.427 61.3255 179.651 61.8364 179.49L63.1785 179.067C63.8382 178.859 64.1527 178.108 63.8378 177.492L63.4061 176.648C63.1021 176.053 62.3478 175.856 61.7917 176.225L60.6177 177.006ZM372.235 249.448C370.495 249.633 369.011 248.2 369.134 246.455L369.837 236.513C369.951 234.903 370.923 233.48 372.381 232.788L375.249 231.428C375.639 231.243 375.888 230.85 375.888 230.418V229.108C375.888 228.7 376.11 228.325 376.467 228.129L377.442 227.593C377.961 227.308 378.614 227.478 378.928 227.981L380.032 229.749C380.143 229.927 380.202 230.132 380.202 230.341V236.556C380.202 236.735 380.159 236.911 380.076 237.07L374.433 247.947C373.998 248.785 373.173 249.348 372.235 249.448Z" fill="url(#paint4_linear_2262_5709)"/>
</g>
</g>
<defs>
<filter id="filter0_d_2262_5709" x="291.325" y="92.4921" width="104.134" height="104.134" filterUnits="userSpaceOnUse" color-interpolation-filters="sRGB">
<feFlood flood-opacity="0" result="BackgroundImageFix"/>
<feColorMatrix in="SourceAlpha" type="matrix" values="0 0 0 0 0 0 0 0 0 0 0 0 0 0 0 0 0 0 127 0" result="hardAlpha"/>
<feOffset dy="1.16719"/>
<feGaussianBlur stdDeviation="9.33754"/>
<feColorMatrix type="matrix" values="0 0 0 0 0.621613 0 0 0 0 0.129173 0 0 0 0 0.129173 0 0 0 0.5 0"/>
<feBlend mode="normal" in2="BackgroundImageFix" result="effect1_dropShadow_2262_5709"/>
<feBlend mode="normal" in="SourceGraphic" in2="effect1_dropShadow_2262_5709" result="shape"/>
</filter>
<filter id="filter1_d_2262_5709" x="239.547" y="-9.28601" width="108.415" height="108.415" filterUnits="userSpaceOnUse" color-interpolation-filters="sRGB">
<feFlood flood-opacity="0" result="BackgroundImageFix"/>
<feColorMatrix in="SourceAlpha" type="matrix" values="0 0 0 0 0 0 0 0 0 0 0 0 0 0 0 0 0 0 127 0" result="hardAlpha"/>
<feOffset dy="1.16719"/>
<feGaussianBlur stdDeviation="9.7266"/>
<feColorMatrix type="matrix" values="0 0 0 0 0.621613 0 0 0 0 0.129173 0 0 0 0 0.129173 0 0 0 0.5 0"/>
<feBlend mode="normal" in2="BackgroundImageFix" result="effect1_dropShadow_2262_5709"/>
<feBlend mode="normal" in="SourceGraphic" in2="effect1_dropShadow_2262_5709" result="shape"/>
</filter>
<linearGradient id="paint0_linear_2262_5709" x1="231.388" y1="172.209" x2="332.063" y2="181.127" gradientUnits="userSpaceOnUse">
<stop offset="0.306426" stop-color="#B6D1D0"/>
<stop offset="1" stop-color="#F0EACF"/>
</linearGradient>
<linearGradient id="paint1_linear_2262_5709" x1="186.104" y1="112.567" x2="45.2835" y2="113.119" gradientUnits="userSpaceOnUse">
<stop stop-color="#001D2F"/>
<stop offset="1" stop-color="#B6D1D0"/>
</linearGradient>
<linearGradient id="paint2_linear_2262_5709" x1="238.468" y1="70.3202" x2="106.115" y2="70.3202" gradientUnits="userSpaceOnUse">
<stop stop-color="#B6D1D0"/>
<stop offset="1" stop-color="#B6D1D0" stop-opacity="0"/>
</linearGradient>
<linearGradient id="paint3_linear_2262_5709" x1="55.868" y1="170.146" x2="293.823" y2="169.843" gradientUnits="userSpaceOnUse">
<stop stop-color="#001D2F"/>
<stop offset="1" stop-color="#B6D1D0"/>
</linearGradient>
<linearGradient id="paint4_linear_2262_5709" x1="58.6723" y1="166.043" x2="145.224" y2="55.5426" gradientUnits="userSpaceOnUse">
<stop stop-color="#B6D1D0"/>
<stop offset="1" stop-color="#F0EACF"/>
</linearGradient>
<clipPath id="clip0_2262_5709">
<rect x="-0.333328" y="90.75" width="56.6667" height="42.5" rx="5" fill="white"/>
</clipPath>
</defs>
</svg>